<?xml version="1.0" encoding="UTF-8" standalone="no"?>
<!DOCTYPE svg PUBLIC "-//W3C//DTD SVG 1.1//EN" "http://www.w3.org/Graphics/SVG/1.1/DTD/svg11.dtd">
<svg width="100%" height="100%" viewBox="0 0 280 280" version="1.1" xmlns="http://www.w3.org/2000/svg" xmlns:xlink="http://www.w3.org/1999/xlink" xml:space="preserve" style="fill-rule:evenodd;clip-rule:evenodd;stroke-linejoin:round;stroke-miterlimit:1.41421;">
    <g transform="matrix(1.32395,0,0,1.32395,-94.8058,-8.85759)">
        <path d="M170.3,17.4C201.7,55.97 183.76,114.18 172.55,157.88C171.55,161.64 177.4,163.25 178.37,159.48C190.27,113.08 207.92,54.08 174.57,13.13C172.11,10.13 167.87,14.41 170.29,17.4L170.3,17.4ZM199.22,195.67C199.29,192.92 199.86,190.27 196.92,188.87C193.62,187.32 187.58,190.37 184.42,191.01C179.593,192.022 174.701,192.69 169.78,193.01C168.94,193.06 161.95,193.64 159.44,193.69C159.385,193.604 159.324,193.52 159.26,193.44C158.487,192.448 157.233,191.95 155.99,192.14C155.19,189.14 150.09,189.42 150.06,192.99C150.06,196.87 148.3,206.09 150.93,209.34C153.27,212.24 158.08,211.14 161.3,211.16L184.75,211.26C188.38,211.26 195.03,212.92 197.9,209.88C200.4,207.18 199.14,199.01 199.22,195.68L199.22,195.67Z" style="fill:rgb(242,209,35);fill-rule:nonzero;"/>
    </g>
    <g transform="matrix(1.32395,0,0,1.32395,-94.8058,-8.85759)">
        <path d="M199.46,190.25C199.56,187.17 195.8,186.55 194.16,188.35C192.61,187.35 189.99,187.78 189.4,189.95C186.72,199.85 178.06,199.55 169.63,201.2C163.53,202.4 156.79,202.8 151.29,205.77C148.49,207.27 149.99,211.2 152.79,211.39C162.818,212.131 172.889,212.088 182.91,211.26C185.452,211.225 187.99,211.041 190.51,210.71C191.324,211.25 192.283,211.529 193.26,211.51C201.92,211.63 199.3,194.67 199.46,190.24L199.46,190.25Z" style="fill:rgb(227,169,49);fill-rule:nonzero;"/>
    </g>
    <g transform="matrix(1.32395,0,0,1.32395,-94.8058,-8.85759)">
        <path d="M207.54,77.56C206.44,31.28 178.88,15.26 173.37,12.56C173.034,12.392 172.663,12.304 172.287,12.304C170.959,12.304 169.867,13.396 169.867,14.724C169.867,14.836 169.874,14.949 169.89,15.06L171.89,29.66C171.962,30.186 172.441,30.567 172.97,30.52C174.723,30.395 176.484,30.585 178.17,31.08C176.78,32.136 175.146,32.824 173.42,33.08C172.899,33.116 172.49,33.555 172.49,34.078C172.49,34.125 172.493,34.173 172.5,34.22L173.6,42.22C177.351,69.795 177.787,97.721 174.9,125.4L174.65,127.85C173.49,138.85 172.38,149.48 171.75,159.13L162.38,159.13C161.831,159.13 161.38,159.581 161.38,160.13L161.38,167.75C161.38,168.299 161.831,168.75 162.38,168.75L163.88,168.75C165.838,168.75 167.45,170.362 167.45,172.32C167.45,174.278 165.838,175.89 163.88,175.89C163.88,175.89 153.88,175.89 153.88,175.89C151.741,175.89 149.98,177.651 149.98,179.79L149.98,208.86C149.98,210.999 151.741,212.76 153.88,212.76L195.68,212.76C197.819,212.76 199.58,210.999 199.58,208.86L199.58,179.76C199.58,177.621 197.819,175.86 195.68,175.86L186.38,175.86C184.422,175.86 182.81,174.248 182.81,172.29C182.81,170.332 184.422,168.72 186.38,168.72C186.38,168.72 187.86,168.72 187.86,168.72C188.409,168.72 188.86,168.269 188.86,167.72L188.86,160.1C188.86,159.551 188.409,159.1 187.86,159.1L180.16,159.1C182.86,148.64 187.74,138.16 192.51,127.9C194.38,123.9 196.24,119.9 198.04,115.8C198.315,115.34 198.388,114.785 198.24,114.27C198.105,113.983 197.875,113.75 197.59,113.61C195.639,112.769 193.947,111.423 192.69,109.71C194.781,109.909 196.817,110.499 198.69,111.45C198.942,111.587 199.241,111.608 199.51,111.51C199.783,111.416 200.002,111.208 200.11,110.94C205.48,97.67 207.78,87.38 207.55,77.57L207.54,77.56ZM153.86,177.88L163.86,177.88C166.921,177.88 169.44,175.361 169.44,172.3C169.44,169.239 166.921,166.72 163.86,166.72C163.86,166.72 163.38,166.72 163.38,166.72L163.38,161.12L171.61,161.12C171.39,164.99 171.23,168.72 171.19,172.22C171.142,178.866 172.577,185.439 175.39,191.46C173.51,191.64 171.47,191.76 169.19,191.76C157.49,191.76 153.11,189.51 151.99,188.76L151.99,179.76C152.001,178.733 152.843,177.891 153.87,177.88L153.86,177.88ZM189.2,202.73C189.289,202.805 189.344,202.914 189.35,203.03L189.35,205.85C179.088,197.728 173.119,185.317 173.18,172.23C173.18,168.73 173.38,165 173.61,161.11L177.61,161.11C176.557,165.585 176.007,170.163 175.97,174.76C175.93,190.01 187.01,200.74 189.2,202.74L189.2,202.73ZM195.7,210.73L153.86,210.73C152.818,210.73 151.96,209.872 151.96,208.83L151.96,191.11C154.26,192.24 159.22,193.78 169.16,193.78C171.552,193.783 173.942,193.656 176.32,193.4C179.523,199.527 184.175,204.78 189.87,208.7C190.016,208.783 190.182,208.828 190.35,208.83C190.899,208.83 191.35,208.379 191.35,207.83L191.35,203.03C191.341,202.352 191.051,201.707 190.55,201.25C187.701,198.599 185.228,195.571 183.2,192.25C184.94,191.87 186.55,191.45 188.1,191.05C191.186,190.129 194.36,189.533 197.57,189.27L197.57,208.85C197.57,209.892 196.712,210.75 195.67,210.75L195.7,210.73ZM186.85,161.1L186.85,166.7L186.37,166.7C183.306,166.7 180.785,169.221 180.785,172.285C180.785,175.349 183.306,177.87 186.37,177.87L195.69,177.87C196.725,177.881 197.57,178.735 197.57,179.77L197.57,187.25C194.181,187.514 190.829,188.134 187.57,189.1C185.87,189.54 184.09,190 182.13,190.42C179.44,185.631 177.996,180.242 177.93,174.75C177.974,170.153 178.544,165.577 179.63,161.11L186.83,161.11L186.85,161.1ZM198.62,109.16C196.149,108.045 193.448,107.53 190.74,107.66C190.218,107.695 189.807,108.134 189.807,108.658C189.807,108.819 189.846,108.977 189.92,109.12C191.342,111.693 193.502,113.783 196.12,115.12C194.38,119.12 192.52,123.07 190.68,127.02C185.78,137.52 180.8,148.28 178.06,159.02L173.76,159.02C174.39,149.46 175.5,138.92 176.66,127.96L176.91,125.51C179.817,97.678 179.38,69.598 175.61,41.87L174.61,34.81C176.88,34.197 178.979,33.068 180.74,31.51C180.954,31.32 181.076,31.048 181.076,30.762C181.076,30.415 180.896,30.092 180.6,29.91C178.49,28.779 176.111,28.243 173.72,28.36L171.86,14.68C171.853,14.651 171.85,14.621 171.85,14.59C171.85,14.371 172.03,14.19 172.25,14.19C172.324,14.19 172.397,14.211 172.46,14.25C177.79,16.9 204.46,32.41 205.51,77.55C205.76,86.89 203.61,96.65 198.61,109.18L198.62,109.16Z" style="fill:rgb(79,83,99);fill-rule:nonzero;"/>
    </g>
</svg>
